ply
format ascii 1.0
comment VCGLIB generated
element vertex 678
property float x
property float y
property float z
element face 1368
property list uchar int vertex_indices
end_header
28.4283 23.0622 15 
29.2428 24.0547 15 
30.2055 24.9041 15 
31.2917 25.5886 15 
31.2917 25.5886 9 
32.4734 26.0906 9 
33.7202 26.397 15 
29.2428 24.0547 -9 
29.2428 24.0547 -15 
30.2055 24.9041 -15 
31.2917 25.5886 -15 
33.7202 26.397 -9 
33.7202 26.397 -15 
42.7767 16.623 15 
42.944 17.5549 9 
42.5005 15.7174 15 
42.944 17.5549 -9 
42.944 17.5549 -15 
42.7767 16.623 -15 
35 26.5 9 
36.2515 26.4015 9 
37.4721 26.1085 15 
38.6319 25.6281 15 
38.6319 25.6281 9 
39.7023 24.9721 15 
39.7023 24.9721 9 
40.6568 24.1569 9 
42.128 22.1319 15 
42.128 22.1319 9 
42.6084 20.9721 9 
42.9015 19.7515 15 
35 26.5 -15 
36.2515 26.4015 -15 
38.6319 25.6281 -15 
39.7023 24.9721 -15 
40.6568 24.1569 -9 
41.4721 23.2023 -15 
42.6084 20.9721 -15 
42.9015 19.7515 -15 
42.9015 19.7515 -9 
-43 1.5 -15 
-43 -4.5 -12 
-43 -4.5 -15 
34.3153 15.3229 -15 
36.4632 15.598 -15 
42.128 22.1319 -15 
40.6568 24.1569 -15 
36.4632 21.402 -15 
37.4721 26.1085 -15 
34.8621 21.7471 -15 
32.4734 26.0906 -15 
32.4714 20.5417 -15 
28.4283 23.0622 -15 
18 1.5 -15 
43 18.5 -15 
38.1451 17.6811 -15 
37.6927 16.6801 -15 
42.5005 15.7174 -15 
27.7832 21.9521 -15 
31.7968 19.0493 -15 
31.75 18.5 -15 
31.9356 17.4173 -15 
31.75 18.5 15 
31.7968 19.0493 15 
31.9356 19.5827 15 
27.7832 21.9521 15 
32.8528 20.9397 15 
32.8528 16.0603 15 
37.9615 17.1613 15 
33.7882 15.4844 15 
33.296 15.7325 15 
18 1.5 15 
31.7968 17.9507 15 
42.944 17.5549 15 
43 18.5 15 
42.6084 20.9721 15 
37.9615 19.8387 15 
41.4721 23.2023 15 
40.6568 24.1569 15 
36.2515 26.4015 15 
35 26.5 15 
34.3153 21.6771 15 
32.4734 26.0906 15 
33.296 21.2675 15 
13 -26.5 12 
1.47395 -26.5 -3.02386 
-15.3902 -26.5 1.64776 
-15.3902 -26.5 -1.64776 
-15.25 -26.5 -1.15835e-006 
-8.4 -26.5 -1.15835e-006 
-8.32232 -26.5 0.912602 
-8.09154 -26.5 1.79895 
-15.8069 -26.5 3.24811 
-17.4141 -26.5 6.12514 
-6.56764 -26.5 4.05363 
-21.3646 -26.5 9.04692 
-22.9459 -26.5 9.53116 
-4.13767 -26.5 -5.2788 
-5.01342 -26.5 -5.0106 
-7.20139 -26.5 -3.39239 
0.898563 -26.5 -3.73647 
0.211021 -26.5 -4.34159 
-0.568897 -26.5 -4.8218 
1.92064 -26.5 2.22427 
-0.568897 -26.5 4.8218 
0.211021 -26.5 4.34158 
-27.855 -26.5 -9.32263 
-33.8845 -26.5 4.01604 
-32.0391 -26.5 6.7464 
-26.2384 -26.5 9.67103 
-43 -26.5 12 
-4.13767 -26.5 5.2788 
-43 -26.5 -12 
-34.4354 -26.5 -2.45679 
-34.7149 -26.5 0.826855 
2.22576 1.5 1.36068 
-32.7114 1.5 -10.5537 
-30.8964 1.5 -11.3498 
-28.9751 1.5 -11.8363 
2.38055 1.5 0.457952 
-8.09154 1.5 -1.79895 
-7.71427 1.5 -2.63355 
-7.20139 1.5 -3.39239 
-37.9893 1.5 -4.82034 
0.898563 1.5 -3.73647 
0.898563 1.5 3.73647 
-5.83126 1.5 4.59826 
-6.56764 1.5 4.05363 
-15.6294 1.5 -9.46969 
-17.2886 1.5 10.5537 
-15.6294 1.5 9.46968 
-2.3141 1.5 -5.35626 
-5.01342 1.5 -5.0106 
-17.2886 1.5 -10.5537 
-4.13767 1.5 -5.2788 
-3.22918 1.5 -5.39513 
18 1.5 -9 
-0.568897 1.5 -4.8218 
-23 1.5 -12 
-27 1.5 -12 
-11.041 1.5 -0.990952 
-8.4 1.5 6.55671e-008 
-11.041 1.5 0.990953 
-11.3672 1.5 2.94583 
-7.71427 1.5 2.63355 
-12.0107 1.5 4.82034 
-7.20139 1.5 3.39239 
0.211021 1.5 -4.34159 
18 1.5 9 
-43 1.5 15 
-38.959 1.5 0.990953 
-3.22918 1.5 5.39513 
-19.1036 1.5 11.3498 
-5.01342 1.5 5.0106 
-27 1.5 12 
-28.9751 1.5 11.8363 
-30.8964 1.5 11.3498 
-32.7114 1.5 10.5537 
35 -4.5 -15 
35 -4.5 15 
-43 -4.5 15 
-43 -4.5 12 
27 -4.5 12 
13 -26.5 -12 
27 -4.5 -12 
13 -14.5 -12 
13 -14.5 12 
28.4283 23.0622 9 
29.2428 24.0547 9 
30.2055 24.9041 9 
34.3153 21.6771 9 
33.7202 26.397 9 
32.4714 20.5417 9 
27.7832 21.9521 9 
31.7968 17.9507 9 
31.9356 17.4173 9 
32.4714 16.4583 9 
33.296 15.7325 9 
33.7882 15.4844 9 
36.9326 15.887 9 
42.5005 15.7174 9 
37.2259 1.5 9 
37.6927 16.6801 9 
42.7767 16.623 9 
37.9615 17.1613 9 
38.1451 17.6811 9 
43 18.5 9 
38.2383 18.2244 9 
34.8621 15.2529 9 
35.4128 15.2763 9 
35.9517 15.3925 9 
35.9517 21.6075 9 
37.4721 26.1085 9 
36.4632 21.402 9 
36.9326 21.113 9 
37.3464 20.7488 9 
37.6927 20.3199 9 
41.4721 23.2023 9 
38.1451 19.3189 9 
42.9015 19.7515 9 
32.1627 16.915 -9 
37.2259 1.5 -9 
37.3464 16.2512 -9 
37.6927 16.6801 -9 
36.4632 15.598 -9 
35.4128 15.2763 -9 
28.4283 23.0622 -9 
32.4714 20.5417 -9 
34.3153 15.3229 -9 
27.7832 21.9521 -9 
31.7968 19.0493 -9 
42.5005 15.7174 -9 
37.9615 17.1613 -9 
42.7767 16.623 -9 
38.2383 18.2244 -9 
43 18.5 -9 
38.2383 18.7756 -9 
38.1451 19.3189 -9 
42.6084 20.9721 -9 
37.9615 19.8387 -9 
42.128 22.1319 -9 
37.6927 20.3199 -9 
41.4721 23.2023 -9 
37.3464 20.7488 -9 
39.7023 24.9721 -9 
38.6319 25.6281 -9 
37.4721 26.1085 -9 
36.2515 26.4015 -9 
34.8621 21.7471 -9 
35 26.5 -9 
33.7882 21.5156 -9 
32.4734 26.0906 -9 
33.296 21.2675 -9 
31.2917 25.5886 -9 
32.8528 20.9397 -9 
30.2055 24.9041 -9 
35.9517 15.3925 -9 
35.9517 15.3925 -15 
36.9326 15.887 -9 
36.9326 15.887 -15 
37.3464 16.2512 -15 
37.9615 17.1613 -15 
38.1451 17.6811 -9 
38.2383 18.2244 -15 
38.2383 18.7756 -15 
38.1451 19.3189 -15 
37.9615 19.8387 -15 
37.6927 20.3199 -15 
37.3464 20.7488 -15 
36.9326 21.113 -9 
36.9326 21.113 -15 
36.4632 21.402 -9 
35.9517 21.6075 -9 
35.9517 21.6075 -15 
35.4128 21.7237 -9 
35.4128 21.7237 -15 
34.3153 21.6771 -9 
34.3153 21.6771 -15 
33.7882 21.5156 -15 
33.296 21.2675 -15 
32.8528 20.9397 -15 
32.1627 20.085 -9 
32.1627 20.085 -15 
31.9356 19.5827 -9 
31.9356 19.5827 -15 
31.75 18.5 -9 
31.7968 17.9507 -9 
31.7968 17.9507 -15 
31.9356 17.4173 -9 
32.1627 16.915 -15 
32.4714 16.4583 -9 
32.4714 16.4583 -15 
32.8528 16.0603 -9 
32.8528 16.0603 -15 
33.296 15.7325 -9 
33.7882 15.4844 -9 
33.296 15.7325 -15 
33.7882 15.4844 -15 
34.8621 15.2529 -9 
35 15.25 -9 
34.8621 15.2529 -15 
35.4128 15.2763 -15 
35.4128 21.7237 9 
35.9517 21.6075 15 
36.4632 21.402 15 
36.9326 21.113 15 
37.3464 20.7488 15 
37.6927 20.3199 15 
37.9615 19.8387 9 
38.1451 19.3189 15 
38.2383 18.7756 9 
38.2383 18.7756 15 
38.2383 18.2244 15 
38.1451 17.6811 15 
37.6927 16.6801 15 
37.3464 16.2512 15 
37.3464 16.2512 9 
36.9326 15.887 15 
36.4632 15.598 9 
36.4632 15.598 15 
35.9517 15.3925 15 
35.4128 15.2763 15 
34.8621 15.2529 15 
34.3153 15.3229 9 
34.3153 15.3229 15 
32.8528 16.0603 9 
32.4714 16.4583 15 
32.1627 16.915 9 
32.1627 16.915 15 
31.9356 17.4173 15 
31.75 18.5 9 
31.7968 19.0493 9 
31.9356 19.5827 9 
32.1627 20.085 9 
32.1627 20.085 15 
32.4714 20.5417 15 
32.8528 20.9397 9 
33.296 21.2675 9 
33.7882 21.5156 15 
33.7882 21.5156 9 
34.8621 21.7471 9 
34.8621 21.7471 15 
35 21.75 9 
35.4128 21.7237 15 
-20.0777 -1.5 8.51236 
-21.5186 -13.5 8.87725 
-18.7165 -1.5 7.91526 
-18.7165 -13.5 7.91526 
-14.758 -1.5 3.61526 
-14.2754 -1.5 2.20937 
-14.0307 -1.5 -0.743215 
-14.758 -1.5 -3.61526 
-14.758 -13.5 -3.61526 
-15.4655 -1.5 -4.92253 
-16.3785 -13.5 -6.09553 
-18.7165 -1.5 -7.91526 
-17.4721 -13.5 -7.10227 
-21.5186 -13.5 -8.87725 
-23 -1.5 9 
-27 -1.5 9 
-28.4813 -13.5 -8.87725 
-29.9223 -13.5 -8.51236 
-29.9223 -1.5 -8.51236 
-34.5345 -1.5 -4.92253 
-34.5345 -13.5 -4.92253 
-35.242 -1.5 -3.61526 
-35.7246 -13.5 -2.20937 
-35.9693 -13.5 -0.743215 
-35.9693 -13.5 0.743214 
-33.6215 -1.5 6.09553 
-32.5279 -13.5 7.10226 
-32.5279 -1.5 7.10226 
-27 -13.5 -9 
-23 -13.5 9 
-20.0777 -13.5 8.51235 
-19.6684 -13.5 6.15631 
-17.4721 -13.5 7.10226 
-17.8499 -13.5 4.74097 
-16.3785 -13.5 6.09553 
-17.1398 -13.5 3.82864 
-15.4655 -13.5 4.92253 
-14.758 -13.5 3.61526 
-16.2142 -13.5 1.7184 
-14.2754 -13.5 2.20937 
-14.0307 -13.5 0.743214 
-16.0239 -13.5 -0.578056 
-14.0307 -13.5 -0.743215 
-16.2142 -13.5 -1.7184 
-14.2754 -13.5 -2.20937 
-16.5896 -13.5 -2.81187 
-17.1398 -13.5 -3.82864 
-15.4655 -13.5 -4.92253 
-18.7165 -13.5 -7.91526 
-20.7271 -13.5 -6.62072 
-20.0777 -13.5 -8.51236 
-23 -13.5 -9 
-29.2729 -13.5 -6.62072 
-30.3316 -13.5 -6.15632 
-31.2835 -13.5 -7.91526 
-31.2995 -13.5 -5.52398 
-32.5279 -13.5 -7.10227 
-32.8602 -13.5 -3.82864 
-33.6215 -13.5 -6.09553 
-33.4104 -13.5 -2.81187 
-35.242 -13.5 -3.61526 
-33.9761 -13.5 -0.578056 
-35.7246 -13.5 2.20937 
-35.242 -13.5 3.61526 
-33.4104 -13.5 2.81187 
-34.5345 -13.5 4.92253 
-32.8602 -13.5 3.82864 
-32.1501 -13.5 4.74097 
-33.6215 -13.5 6.09553 
-31.2995 -13.5 5.52398 
-30.3316 -13.5 6.15631 
-31.2835 -13.5 7.91526 
-29.9223 -13.5 8.51235 
-28.1522 -13.5 6.90453 
-27 -13.5 7 
-28.4813 -13.5 8.87725 
-27 -13.5 9 
-21.8478 -13.5 6.90453 
-20.7271 -13.5 6.62072 
-18.7005 -13.5 5.52398 
-18.7005 -20.5 5.52398 
-17.8499 -20.5 4.74097 
-16.5896 -13.5 2.81187 
-16.2142 -20.5 1.7184 
-16.0239 -20.5 0.578054 
-16.0239 -13.5 0.578054 
-16.2142 -20.5 -1.7184 
-16.5896 -20.5 -2.81187 
-17.8499 -13.5 -4.74097 
-17.8499 -20.5 -4.74097 
-18.7005 -13.5 -5.52398 
-19.6684 -13.5 -6.15632 
-19.6684 -20.5 -6.15632 
-21.8478 -13.5 -6.90453 
-23 -13.5 -7 
-23 -20.5 -7 
-23 -13.5 7 
-28.1522 -13.5 -6.90453 
-28.1522 -20.5 -6.90453 
-30.3316 -20.5 -6.15632 
-32.1501 -13.5 -4.74097 
-31.2995 -20.5 -5.52398 
-32.8602 -20.5 -3.82864 
-33.7858 -13.5 -1.7184 
-33.7858 -20.5 -1.7184 
-33.9761 -13.5 0.578054 
-33.9761 -20.5 0.578054 
-33.7858 -20.5 1.7184 
-33.7858 -13.5 1.7184 
-33.4104 -20.5 2.81187 
-32.1501 -20.5 4.74097 
-29.2729 -13.5 6.62072 
-28.1522 -20.5 6.90453 
-27 -20.5 -7 
-27 -13.5 -7 
-30.2517 -20.5 -4.24049 
-30.8928 -20.5 -3.29194 
-31.3644 -20.5 -2.2487 
-33.4104 -20.5 -2.81187 
-31.75 -20.5 -8.96083e-007 
-33.9761 -20.5 -0.578056 
-21.8478 -20.5 6.90453 
-29.2729 -20.5 -6.62072 
-29.4596 -20.5 -5.06704 
-32.1501 -20.5 -4.74097 
-27.5168 -20.5 -6.26325 
-19.4076 -20.5 -3.77983 
-17.1398 -20.5 -3.82864 
-23.0234 -20.5 6.45413 
-23 -20.5 7 
-25.2865 -20.5 6.74392 
-27 -20.5 7 
-26.4221 -20.5 6.5985 
-29.2729 -20.5 6.62072 
-30.3316 -20.5 6.15631 
-31.2995 -20.5 5.52398 
-30.2517 -20.5 4.24048 
-32.8602 -20.5 3.82864 
-25.2865 -20.5 -6.74392 
-24.1426 -20.5 -6.69533 
-23.0234 -20.5 -6.45413 
-21.8478 -20.5 -6.90453 
-20.7271 -20.5 -6.62072 
-18.7005 -20.5 -5.52398 
-20.1268 -20.5 -4.67059 
-18.4678 -20.5 1.70085 
-18.2743 -20.5 0.572439 
-16.0239 -20.5 -0.578056 
-20.7271 -20.5 6.62072 
-19.6684 -20.5 6.15631 
-20.1268 -20.5 4.67059 
-18.8492 -20.5 2.78033 
-17.1398 -20.5 3.82864 
-16.5896 -20.5 2.81187 
-31.3644 -20.5 2.24869 
-31.5322 -23.5 1.70085 
-31.6529 -20.5 1.14075 
-31.6289 -23.5 1.13665 
-31.1508 -23.5 2.78033 
-30.5924 -23.5 3.77983 
-30.8928 -20.5 3.29194 
-29.8732 -23.5 4.67059 
-30.2328 -23.5 4.22521 
-29.4596 -20.5 5.06704 
-29.4435 -23.5 5.04878 
-28.0389 -23.5 6.02725 
-28.5391 -20.5 5.74782 
-27.5168 -20.5 6.26325 
-25.8574 -23.5 6.69533 
-26.417 -23.5 6.57473 
-25.2854 -23.5 6.71962 
-24.1426 -20.5 6.69533 
-24.1457 -23.5 6.67121 
-21.9611 -20.5 6.02725 
-21.9721 -23.5 6.00553 
-20.5404 -23.5 5.06704 
-20.9862 -20.5 5.42698 
-21.4609 -23.5 5.74782 
-19.4277 -23.5 3.76621 
-19.4076 -20.5 3.77983 
-18.6356 -23.5 2.24869 
-18.4913 -23.5 1.69472 
-18.2985 -23.5 0.570376 
-18.3471 -23.5 -1.14076 
-18.2743 -20.5 -0.572441 
-18.6356 -23.5 -2.2487 
-18.4678 -20.5 -1.70085 
-18.4913 -23.5 -1.69473 
-19.1072 -23.5 -3.29194 
-18.8492 -20.5 -2.78033 
-19.4277 -23.5 -3.76621 
-20.5404 -23.5 -5.06704 
-19.7483 -23.5 -4.24049 
-21.9611 -20.5 -6.02725 
-20.9862 -20.5 -5.42698 
-22.4832 -23.5 -6.26325 
-21.4609 -23.5 -5.74782 
-23.5779 -23.5 -6.5985 
-26.9766 -23.5 -6.45413 
-26.4221 -20.5 -6.5985 
-28.5391 -20.5 -5.74782 
-29.8732 -23.5 -4.67059 
-29.4435 -23.5 -5.04879 
-31.6529 -20.5 -1.14076 
-31.1508 -23.5 -2.78033 
-31.7257 -23.5 -0.572441 
-31.6289 -23.5 -1.13665 
-31.5322 -23.5 -1.70085 
-18.2985 -23.5 -0.570378 
-15.8069 -26.5 -3.24811 
-18.8714 -23.5 -2.77032 
-16.4881 -26.5 -4.75503 
-17.4141 -26.5 -6.12515 
-18.5584 -26.5 -7.31906 
-20.1444 -23.5 -4.65376 
-21.0007 -23.5 -5.40743 
-19.888 -26.5 -8.30241 
-21.9721 -23.5 -6.00554 
-21.3646 -26.5 -9.04692 
-23.0306 -23.5 -6.43088 
-22.9459 -26.5 -9.53117 
-24.1457 -23.5 -6.67121 
-24.7135 -23.5 -6.74392 
-24.5862 -26.5 -9.74122 
-25.2854 -23.5 -6.71962 
-25.8574 -23.5 -6.69533 
-26.2384 -26.5 -9.67103 
-26.417 -23.5 -6.57473 
-27.5077 -23.5 -6.24069 
-29.3895 -26.5 -8.70603 
-28.0389 -23.5 -6.02725 
-28.5263 -23.5 -5.72712 
-29.0138 -23.5 -5.42698 
-30.7977 -26.5 -7.83897 
-32.0391 -26.5 -6.74641 
-30.2328 -23.5 -4.22521 
-30.5924 -23.5 -3.77983 
-33.078 -26.5 -5.45976 
-33.8845 -26.5 -4.01604 
-30.8716 -23.5 -3.28008 
-31.3415 -23.5 -2.24059 
-34.7149 -26.5 -0.82686 
-31.7257 -23.5 -1.02722e-006 
-31.7257 -23.5 0.572439 
-34.4354 -26.5 2.45678 
-31.3415 -23.5 2.24059 
-30.8716 -23.5 3.28008 
-33.078 -26.5 5.45975 
-30.7977 -26.5 7.83897 
-29.0138 -23.5 5.42698 
-28.5263 -23.5 5.72711 
-27.5077 -23.5 6.24069 
-29.3895 -26.5 8.70603 
-27.855 -26.5 9.32263 
-26.9766 -23.5 6.45413 
-24.7135 -23.5 6.74392 
-24.5862 -26.5 9.74121 
-23.5779 -23.5 6.5985 
-23.0306 -23.5 6.43087 
-22.4832 -23.5 6.26325 
-21.0007 -23.5 5.40743 
-19.888 -26.5 8.30241 
-18.5584 -26.5 7.31905 
-20.1444 -23.5 4.65376 
-19.7483 -23.5 4.24048 
-19.1072 -23.5 3.29194 
-16.4881 -26.5 4.75502 
-18.8714 -23.5 2.77032 
-18.3471 -23.5 1.14075 
-18.25 -23.5 -1.02722e-006 
-21.5186 -1.5 8.87725 
-21.0249 1.5 11.8363 
-17.4721 -1.5 7.10226 
-16.3785 -1.5 6.09553 
-15.4655 -1.5 4.92253 
-14.1713 1.5 8.12738 
-12.954 1.5 6.56338 
-14.0307 -1.5 0.743215 
-11.3672 1.5 -2.94583 
-14.2754 -1.5 -2.20937 
-12.0107 1.5 -4.82034 
-12.954 1.5 -6.56338 
-16.3785 -1.5 -6.09553 
-14.1713 1.5 -8.12738 
-17.4721 -1.5 -7.10227 
-20.0777 -1.5 -8.51236 
-19.1036 1.5 -11.3498 
-21.5186 -1.5 -8.87725 
-21.0249 1.5 -11.8363 
-23 -1.5 -9 
-23 1.5 12 
-27 -1.5 -9 
-28.4813 -1.5 -8.87725 
-31.2835 -1.5 -7.91526 
-32.5279 -1.5 -7.10227 
-34.3705 1.5 -9.46969 
-33.6215 -1.5 -6.09553 
-35.8287 1.5 -8.12738 
-37.046 1.5 -6.56338 
-35.7246 -1.5 -2.20937 
-35.9693 -1.5 -0.743215 
-38.6328 1.5 -2.94583 
-38.959 1.5 -0.990952 
-35.9693 -1.5 0.743215 
-35.7246 -1.5 2.20937 
-35.242 -1.5 3.61526 
-38.6328 1.5 2.94583 
-37.9893 1.5 4.82034 
-34.5345 -1.5 4.92253 
-37.046 1.5 6.56338 
-35.8287 1.5 8.12738 
-34.3705 1.5 9.46968 
-31.2835 -1.5 7.91526 
-29.9223 -1.5 8.51236 
-28.4813 -1.5 8.87725 
-8.32232 1.5 0.912603 
-8.09154 1.5 1.79895 
-7.71427 -26.5 2.63355 
-7.20139 -26.5 3.39239 
-5.83126 -26.5 4.59826 
-5.01342 -26.5 5.0106 
-4.13767 1.5 5.2788 
-2.3141 1.5 5.35626 
-3.22918 -26.5 5.39513 
-2.3141 -26.5 5.35626 
-1.41876 1.5 5.1633 
-1.41876 -26.5 5.1633 
-0.568897 1.5 4.8218 
0.211021 1.5 4.34159 
0.898563 -26.5 3.73647 
1.47395 1.5 3.02386 
1.47395 -26.5 3.02386 
1.92064 1.5 2.22427 
2.22576 -26.5 1.36068 
2.38055 -26.5 0.45795 
2.38055 1.5 -0.457952 
2.38055 -26.5 -0.457954 
2.22576 -26.5 -1.36068 
2.22576 1.5 -1.36068 
1.92064 1.5 -2.22427 
1.92064 -26.5 -2.22427 
1.47395 1.5 -3.02386 
-1.41876 -26.5 -5.1633 
-1.41876 1.5 -5.1633 
-2.3141 -26.5 -5.35626 
-3.22918 -26.5 -5.39513 
-5.83126 -26.5 -4.59826 
-5.83126 1.5 -4.59826 
-6.56764 -26.5 -4.05363 
-6.56764 1.5 -4.05363 
-7.71427 -26.5 -2.63355 
-8.09154 -26.5 -1.79896 
-8.32232 -26.5 -0.912606 
-8.32232 1.5 -0.912605 
3 173 65 0 
3 173 0 167 
3 167 0 1 
3 167 1 168 
3 168 1 2 
3 168 2 169 
3 169 2 3 
3 169 3 4 
3 4 3 82 
3 4 82 5 
3 5 82 6 
3 5 6 171 
3 171 6 80 
3 171 80 19 
3 58 209 206 
3 58 206 52 
3 52 206 7 
3 52 7 8 
3 8 7 235 
3 8 235 9 
3 9 235 233 
3 9 233 10 
3 10 233 231 
3 10 231 50 
3 50 231 11 
3 50 11 12 
3 12 11 229 
3 12 229 31 
3 71 65 148 
3 148 65 173 
3 58 53 209 
3 209 53 136 
3 186 74 73 
3 186 73 14 
3 14 73 13 
3 14 13 183 
3 183 13 15 
3 183 15 180 
3 54 215 16 
3 54 16 17 
3 17 16 213 
3 17 213 18 
3 18 213 211 
3 18 211 57 
3 180 15 181 
3 181 15 159 
3 181 159 201 
3 201 159 158 
3 201 158 211 
3 211 158 57 
3 19 80 79 
3 19 79 20 
3 20 79 21 
3 20 21 192 
3 192 21 22 
3 192 22 23 
3 23 22 24 
3 23 24 25 
3 25 24 78 
3 25 78 26 
3 26 78 77 
3 26 77 197 
3 197 77 27 
3 197 27 28 
3 28 27 75 
3 28 75 29 
3 29 75 30 
3 29 30 199 
3 199 30 74 
3 199 74 186 
3 31 229 227 
3 31 227 32 
3 32 227 226 
3 32 226 48 
3 48 226 225 
3 48 225 33 
3 33 225 224 
3 33 224 34 
3 34 224 35 
3 34 35 46 
3 46 35 222 
3 46 222 36 
3 36 222 220 
3 36 220 45 
3 45 220 218 
3 45 218 37 
3 37 218 39 
3 37 39 38 
3 38 39 215 
3 38 215 54 
3 149 40 41 
3 41 40 42 
3 160 149 161 
3 161 149 41 
3 161 41 110 
3 110 41 112 
3 42 40 158 
3 158 40 53 
3 244 245 37 
3 61 269 53 
3 53 276 158 
3 158 276 277 
3 158 277 43 
3 43 280 158 
3 158 280 281 
3 158 281 237 
3 240 57 239 
3 239 57 158 
3 239 158 44 
3 44 158 237 
3 37 245 45 
3 45 245 246 
3 45 246 36 
3 36 246 247 
3 36 247 46 
3 46 247 248 
3 46 248 34 
3 34 248 250 
3 34 250 33 
3 33 250 47 
3 33 47 48 
3 48 47 253 
3 48 253 32 
3 32 253 255 
3 32 255 31 
3 31 255 49 
3 31 49 12 
3 12 49 257 
3 12 257 50 
3 50 257 258 
3 50 258 10 
3 10 258 259 
3 10 259 9 
3 9 259 260 
3 9 260 8 
3 8 260 51 
3 8 51 52 
3 52 51 58 
3 58 51 262 
3 58 262 264 
3 269 271 53 
3 53 271 273 
3 53 273 276 
3 37 38 244 
3 244 38 54 
3 244 54 243 
3 243 54 17 
3 243 17 55 
3 55 17 18 
3 55 18 241 
3 241 18 57 
3 241 57 56 
3 56 57 240 
3 264 59 58 
3 58 59 60 
3 58 60 53 
3 53 60 267 
3 53 267 61 
3 149 160 71 
3 71 160 159 
3 15 294 295 
3 72 62 71 
3 71 62 63 
3 71 63 65 
3 292 293 13 
3 15 295 159 
3 159 295 297 
3 159 297 299 
3 299 300 159 
3 159 300 301 
3 159 301 302 
3 63 64 65 
3 65 64 314 
3 65 314 0 
3 0 314 315 
3 0 315 1 
3 1 315 66 
3 71 67 306 
3 13 293 15 
3 15 293 68 
3 15 68 294 
3 302 304 159 
3 159 304 69 
3 159 69 71 
3 71 69 70 
3 71 70 67 
3 306 308 71 
3 71 308 309 
3 71 309 72 
3 13 73 292 
3 292 73 74 
3 292 74 291 
3 291 74 30 
3 291 30 289 
3 289 30 75 
3 289 75 76 
3 76 75 27 
3 76 27 287 
3 287 27 77 
3 287 77 286 
3 286 77 78 
3 286 78 285 
3 285 78 24 
3 285 24 284 
3 284 24 22 
3 284 22 283 
3 283 22 21 
3 283 21 323 
3 323 21 79 
3 323 79 321 
3 321 79 80 
3 321 80 81 
3 81 80 6 
3 81 6 318 
3 318 6 82 
3 318 82 83 
3 83 82 3 
3 83 3 66 
3 66 3 2 
3 66 2 1 
3 660 163 658 
3 658 163 84 
3 658 84 657 
3 660 661 163 
3 163 661 664 
3 163 664 85 
3 87 675 676 
3 91 92 86 
3 537 540 674 
3 87 676 88 
3 88 676 89 
3 88 89 86 
3 86 89 90 
3 86 90 91 
3 641 93 91 
3 91 93 590 
3 91 590 92 
3 585 586 94 
3 94 586 93 
3 94 93 642 
3 642 93 641 
3 674 540 99 
3 585 94 95 
3 95 94 643 
3 95 643 96 
3 96 643 644 
3 96 644 111 
3 97 98 544 
3 544 98 670 
3 544 670 542 
3 542 670 540 
3 540 670 672 
3 540 672 99 
3 87 533 675 
3 675 533 535 
3 675 535 674 
3 674 535 536 
3 674 536 537 
3 85 100 163 
3 163 100 101 
3 163 101 102 
3 647 648 84 
3 84 648 650 
3 653 655 84 
3 84 655 103 
3 84 103 657 
3 102 666 163 
3 163 666 668 
3 163 668 669 
3 650 104 84 
3 84 104 105 
3 84 105 653 
3 550 106 112 
3 112 106 553 
3 112 553 557 
3 110 576 577 
3 550 112 547 
3 547 112 163 
3 547 163 544 
3 544 163 669 
3 544 669 97 
3 557 558 112 
3 112 558 561 
3 112 561 562 
3 571 110 107 
3 107 110 568 
3 571 108 110 
3 110 108 572 
3 110 572 576 
3 577 109 110 
3 110 109 580 
3 110 580 84 
3 84 580 96 
3 84 96 647 
3 647 96 111 
3 562 113 112 
3 112 113 565 
3 112 565 110 
3 110 565 114 
3 110 114 568 
3 119 115 148 
3 148 115 656 
3 148 656 71 
3 71 656 654 
3 71 654 125 
3 604 141 605 
3 605 141 677 
3 116 117 40 
3 40 117 118 
3 663 662 148 
3 148 662 659 
3 148 659 119 
3 677 120 605 
3 605 120 121 
3 605 121 122 
3 625 123 40 
3 40 123 622 
3 147 124 148 
3 148 124 665 
3 148 665 663 
3 125 652 71 
3 71 652 651 
3 71 651 649 
3 129 126 127 
3 671 133 673 
3 673 133 128 
3 673 128 122 
3 122 128 607 
3 122 607 605 
3 622 621 40 
3 40 621 619 
3 40 619 116 
3 129 127 130 
3 130 127 146 
3 130 146 599 
3 138 612 136 
3 136 612 610 
3 136 610 131 
3 671 132 133 
3 133 132 134 
3 133 134 610 
3 610 134 135 
3 610 135 131 
3 131 667 136 
3 136 667 137 
3 136 137 147 
3 136 53 138 
3 138 53 40 
3 138 40 139 
3 139 40 118 
3 604 602 141 
3 141 602 140 
3 141 140 639 
3 639 140 142 
3 639 142 640 
3 640 142 143 
3 640 143 144 
3 144 143 145 
3 144 145 146 
3 146 145 600 
3 146 600 599 
3 147 148 136 
3 136 148 181 
3 136 181 201 
3 631 630 149 
3 149 630 150 
3 149 150 40 
3 40 150 626 
3 40 626 625 
3 649 646 71 
3 71 646 151 
3 71 151 152 
3 152 151 645 
3 152 645 129 
3 129 645 153 
3 129 153 126 
3 152 595 71 
3 71 595 614 
3 71 614 149 
3 149 614 154 
3 149 154 155 
3 155 156 149 
3 149 156 157 
3 149 157 635 
3 635 634 149 
3 149 634 633 
3 149 633 631 
3 41 42 164 
3 164 42 158 
3 164 158 162 
3 162 158 159 
3 162 159 161 
3 161 159 160 
3 110 84 161 
3 161 84 166 
3 161 166 162 
3 163 112 165 
3 165 112 41 
3 165 41 164 
3 165 166 163 
3 163 166 84 
3 164 162 165 
3 165 162 166 
3 172 167 168 
3 172 168 316 
3 316 168 169 
3 316 169 317 
3 317 169 4 
3 317 4 319 
3 319 4 5 
3 319 5 170 
3 170 5 171 
3 170 171 320 
3 320 171 19 
3 320 19 322 
3 167 172 173 
3 173 172 313 
3 173 313 312 
3 312 311 173 
3 173 311 310 
3 173 310 148 
3 148 310 174 
3 148 174 175 
3 175 307 148 
3 148 307 176 
3 148 176 305 
3 305 177 148 
3 148 177 178 
3 148 178 181 
3 181 178 303 
3 181 303 188 
3 296 180 179 
3 179 180 181 
3 179 181 298 
3 296 182 180 
3 180 182 184 
3 180 184 183 
3 183 184 185 
3 183 185 14 
3 14 185 187 
3 14 187 186 
3 186 187 290 
3 188 189 181 
3 181 189 190 
3 181 190 298 
3 322 19 282 
3 282 19 20 
3 282 20 191 
3 191 20 192 
3 191 192 193 
3 193 192 23 
3 193 23 194 
3 194 23 25 
3 194 25 195 
3 195 25 26 
3 195 26 196 
3 196 26 197 
3 196 197 288 
3 288 197 28 
3 288 28 198 
3 198 28 29 
3 198 29 290 
3 290 29 199 
3 290 199 186 
3 201 238 204 
3 274 272 136 
3 136 272 270 
3 136 270 200 
3 238 201 202 
3 202 201 211 
3 202 211 203 
3 214 242 213 
3 204 236 201 
3 201 236 205 
3 201 205 279 
3 210 263 209 
3 209 263 261 
3 209 261 206 
3 206 261 207 
3 206 207 7 
3 7 207 234 
3 279 278 201 
3 201 278 208 
3 201 208 136 
3 136 208 275 
3 136 275 274 
3 200 268 136 
3 136 268 266 
3 136 266 209 
3 209 266 265 
3 209 265 210 
3 213 242 211 
3 211 242 212 
3 211 212 203 
3 213 16 214 
3 214 16 215 
3 214 215 216 
3 216 215 39 
3 216 39 217 
3 217 39 218 
3 217 218 219 
3 219 218 220 
3 219 220 221 
3 221 220 222 
3 221 222 223 
3 223 222 35 
3 223 35 249 
3 249 35 224 
3 249 224 251 
3 251 224 225 
3 251 225 252 
3 252 225 226 
3 252 226 254 
3 254 226 227 
3 254 227 228 
3 228 227 229 
3 228 229 256 
3 256 229 11 
3 256 11 230 
3 230 11 231 
3 230 231 232 
3 232 231 233 
3 232 233 234 
3 234 233 235 
3 234 235 7 
3 279 205 281 
3 281 205 236 
3 281 236 237 
3 237 236 204 
3 237 204 44 
3 44 204 238 
3 44 238 239 
3 239 238 202 
3 239 202 240 
3 240 202 203 
3 240 203 56 
3 56 203 212 
3 56 212 241 
3 241 212 242 
3 241 242 55 
3 55 242 214 
3 55 214 243 
3 243 214 216 
3 243 216 244 
3 244 216 217 
3 244 217 245 
3 245 217 219 
3 245 219 246 
3 246 219 221 
3 246 221 247 
3 247 221 223 
3 247 223 248 
3 248 223 249 
3 248 249 250 
3 250 249 251 
3 250 251 47 
3 47 251 252 
3 47 252 253 
3 253 252 254 
3 253 254 255 
3 255 254 228 
3 255 228 49 
3 49 228 256 
3 49 256 257 
3 257 256 230 
3 257 230 258 
3 258 230 232 
3 258 232 259 
3 259 232 234 
3 259 234 260 
3 260 234 207 
3 260 207 51 
3 51 207 261 
3 51 261 262 
3 262 261 263 
3 262 263 264 
3 264 263 210 
3 264 210 59 
3 59 210 265 
3 59 265 60 
3 60 265 266 
3 60 266 267 
3 267 266 268 
3 267 268 61 
3 61 268 200 
3 61 200 269 
3 269 200 270 
3 269 270 271 
3 271 270 272 
3 271 272 273 
3 273 272 274 
3 273 274 276 
3 276 274 275 
3 276 275 277 
3 277 275 208 
3 277 208 43 
3 43 208 278 
3 43 278 280 
3 280 278 279 
3 280 279 281 
3 322 282 323 
3 323 282 191 
3 323 191 283 
3 283 191 193 
3 283 193 284 
3 284 193 194 
3 284 194 285 
3 285 194 195 
3 285 195 286 
3 286 195 196 
3 286 196 287 
3 287 196 288 
3 287 288 76 
3 76 288 198 
3 76 198 289 
3 289 198 290 
3 289 290 291 
3 291 290 187 
3 291 187 292 
3 292 187 185 
3 292 185 293 
3 293 185 184 
3 293 184 68 
3 68 184 182 
3 68 182 294 
3 294 182 296 
3 294 296 295 
3 295 296 179 
3 295 179 297 
3 297 179 298 
3 297 298 299 
3 299 298 190 
3 299 190 300 
3 300 190 189 
3 300 189 301 
3 301 189 188 
3 301 188 302 
3 302 188 303 
3 302 303 304 
3 304 303 178 
3 304 178 69 
3 69 178 177 
3 69 177 70 
3 70 177 305 
3 70 305 67 
3 67 305 176 
3 67 176 306 
3 306 176 307 
3 306 307 308 
3 308 307 175 
3 308 175 309 
3 309 175 174 
3 309 174 72 
3 72 174 310 
3 72 310 62 
3 62 310 311 
3 62 311 63 
3 63 311 312 
3 63 312 64 
3 64 312 313 
3 64 313 314 
3 314 313 172 
3 314 172 315 
3 315 172 316 
3 315 316 66 
3 66 316 317 
3 66 317 83 
3 83 317 319 
3 83 319 318 
3 318 319 170 
3 318 170 81 
3 81 170 320 
3 81 320 321 
3 321 320 322 
3 321 322 323 
3 353 338 594 
3 353 594 325 
3 325 594 324 
3 325 324 354 
3 354 324 326 
3 354 326 327 
3 327 326 596 
3 327 596 356 
3 356 596 597 
3 356 597 358 
3 358 597 598 
3 358 598 360 
3 360 598 328 
3 360 328 361 
3 361 328 329 
3 361 329 363 
3 363 329 601 
3 363 601 364 
3 364 601 330 
3 364 330 366 
3 366 330 603 
3 366 603 368 
3 368 603 331 
3 368 331 332 
3 332 331 333 
3 332 333 371 
3 371 333 606 
3 371 606 334 
3 334 606 608 
3 334 608 336 
3 336 608 335 
3 336 335 372 
3 372 335 609 
3 372 609 374 
3 374 609 611 
3 374 611 337 
3 337 611 613 
3 337 613 375 
3 338 353 339 
3 339 353 400 
3 352 615 616 
3 352 616 340 
3 340 616 342 
3 340 342 341 
3 341 342 617 
3 341 617 378 
3 378 617 618 
3 378 618 380 
3 380 618 620 
3 380 620 382 
3 382 620 343 
3 382 343 344 
3 344 343 345 
3 344 345 384 
3 384 345 623 
3 384 623 346 
3 346 623 624 
3 346 624 347 
3 347 624 627 
3 347 627 348 
3 348 627 628 
3 348 628 386 
3 386 628 629 
3 386 629 387 
3 387 629 632 
3 387 632 389 
3 389 632 349 
3 389 349 392 
3 392 349 351 
3 392 351 350 
3 350 351 636 
3 350 636 395 
3 395 636 637 
3 395 637 396 
3 396 637 638 
3 396 638 399 
3 399 638 339 
3 399 339 400 
3 615 352 613 
3 613 352 375 
3 420 353 401 
3 401 353 325 
3 401 325 402 
3 402 325 354 
3 402 354 355 
3 355 354 327 
3 355 327 403 
3 403 327 356 
3 403 356 357 
3 357 356 358 
3 357 358 359 
3 359 358 360 
3 359 360 406 
3 406 360 361 
3 406 361 362 
3 362 361 363 
3 362 363 409 
3 409 363 364 
3 409 364 365 
3 365 364 366 
3 365 366 367 
3 367 366 368 
3 367 368 369 
3 369 368 332 
3 369 332 370 
3 370 332 371 
3 370 371 412 
3 412 371 334 
3 412 334 414 
3 414 334 336 
3 414 336 415 
3 415 336 372 
3 415 372 373 
3 373 372 374 
3 373 374 417 
3 417 374 337 
3 417 337 418 
3 418 337 375 
3 418 375 438 
3 438 375 352 
3 438 352 421 
3 421 352 340 
3 421 340 376 
3 376 340 341 
3 376 341 377 
3 377 341 378 
3 377 378 379 
3 379 378 380 
3 379 380 424 
3 424 380 382 
3 424 382 381 
3 381 382 344 
3 381 344 383 
3 383 344 384 
3 383 384 427 
3 427 384 346 
3 427 346 385 
3 385 346 347 
3 385 347 429 
3 429 347 348 
3 429 348 432 
3 432 348 386 
3 432 386 388 
3 388 386 387 
3 388 387 390 
3 390 387 389 
3 390 389 391 
3 391 389 392 
3 391 392 393 
3 393 392 350 
3 393 350 394 
3 394 350 395 
3 394 395 435 
3 435 395 396 
3 435 396 397 
3 397 396 399 
3 397 399 398 
3 398 399 400 
3 398 400 420 
3 420 400 353 
3 453 420 401 
3 453 401 445 
3 445 401 402 
3 445 402 472 
3 472 402 355 
3 472 355 473 
3 473 355 403 
3 473 403 404 
3 404 403 357 
3 404 357 405 
3 405 357 359 
3 405 359 476 
3 476 359 406 
3 476 406 477 
3 477 406 362 
3 477 362 407 
3 407 362 409 
3 407 409 408 
3 408 409 365 
3 408 365 471 
3 471 365 367 
3 471 367 410 
3 410 367 369 
3 410 369 411 
3 411 369 370 
3 411 370 451 
3 451 370 412 
3 451 412 413 
3 413 412 414 
3 413 414 467 
3 467 414 415 
3 467 415 416 
3 416 415 373 
3 416 373 466 
3 466 373 417 
3 466 417 465 
3 465 417 418 
3 465 418 419 
3 453 455 420 
3 420 455 398 
3 437 438 421 
3 437 421 422 
3 422 421 376 
3 422 376 446 
3 446 376 377 
3 446 377 423 
3 423 377 379 
3 423 379 425 
3 425 379 424 
3 425 424 448 
3 448 424 381 
3 448 381 426 
3 426 381 383 
3 426 383 442 
3 442 383 427 
3 442 427 428 
3 428 427 385 
3 428 385 444 
3 444 385 429 
3 444 429 430 
3 430 429 432 
3 430 432 431 
3 431 432 388 
3 431 388 433 
3 433 388 390 
3 433 390 461 
3 461 390 391 
3 461 391 434 
3 434 391 393 
3 434 393 459 
3 459 393 394 
3 459 394 458 
3 458 394 435 
3 458 435 457 
3 457 435 397 
3 457 397 436 
3 436 397 398 
3 436 398 455 
3 437 419 438 
3 438 419 418 
3 439 448 440 
3 440 448 426 
3 440 426 441 
3 441 426 442 
3 441 442 527 
3 442 428 527 
3 527 428 444 
3 527 444 443 
3 443 444 430 
3 443 430 480 
3 480 430 431 
3 480 431 478 
3 478 431 433 
3 478 433 484 
3 452 453 497 
3 497 453 445 
3 497 445 500 
3 437 422 449 
3 449 422 524 
3 524 422 446 
3 524 446 447 
3 447 446 423 
3 447 423 439 
3 439 423 425 
3 439 425 448 
3 449 523 437 
3 437 523 462 
3 437 462 419 
3 510 411 513 
3 513 411 451 
3 513 451 450 
3 450 451 413 
3 450 413 468 
3 452 495 453 
3 453 495 454 
3 453 454 455 
3 455 454 456 
3 455 456 436 
3 436 456 491 
3 436 491 457 
3 457 491 490 
3 457 490 458 
3 458 490 487 
3 458 487 459 
3 459 487 460 
3 459 460 434 
3 434 460 484 
3 434 484 461 
3 461 484 433 
3 462 463 419 
3 419 463 464 
3 419 464 465 
3 465 464 517 
3 465 517 466 
3 466 517 518 
3 466 518 416 
3 416 518 468 
3 416 468 467 
3 467 468 413 
3 475 477 469 
3 469 477 407 
3 469 407 470 
3 470 407 408 
3 470 408 508 
3 508 408 471 
3 508 471 510 
3 510 471 410 
3 510 410 411 
3 445 472 500 
3 500 472 473 
3 500 473 474 
3 474 473 404 
3 474 404 503 
3 503 404 405 
3 503 405 475 
3 475 405 476 
3 475 476 477 
3 443 480 567 
3 478 479 480 
3 480 479 481 
3 480 481 567 
3 484 482 478 
3 478 482 569 
3 478 569 479 
3 460 483 484 
3 484 483 570 
3 484 570 482 
3 487 485 460 
3 460 485 486 
3 460 486 483 
3 490 573 487 
3 487 573 488 
3 487 488 485 
3 491 489 490 
3 490 489 574 
3 490 574 573 
3 456 578 491 
3 491 578 575 
3 491 575 489 
3 454 492 456 
3 456 492 493 
3 456 493 578 
3 495 579 454 
3 454 579 494 
3 454 494 492 
3 452 581 495 
3 495 581 496 
3 495 496 579 
3 497 583 452 
3 452 583 582 
3 452 582 581 
3 500 501 497 
3 497 501 498 
3 497 498 583 
3 474 499 500 
3 500 499 584 
3 500 584 501 
3 503 588 474 
3 474 588 587 
3 474 587 499 
3 475 589 503 
3 503 589 502 
3 503 502 588 
3 469 504 475 
3 475 504 591 
3 475 591 589 
3 470 592 469 
3 469 592 505 
3 469 505 504 
3 508 593 470 
3 470 593 506 
3 470 506 592 
3 510 507 508 
3 508 507 532 
3 508 532 593 
3 513 509 510 
3 510 509 511 
3 510 511 507 
3 450 512 513 
3 513 512 534 
3 513 534 509 
3 468 516 450 
3 450 516 514 
3 450 514 512 
3 518 515 468 
3 468 515 538 
3 468 538 516 
3 517 520 518 
3 518 520 539 
3 518 539 515 
3 464 519 517 
3 517 519 541 
3 517 541 520 
3 463 521 464 
3 464 521 543 
3 464 543 519 
3 462 546 463 
3 463 546 545 
3 463 545 521 
3 523 549 462 
3 462 549 548 
3 462 548 546 
3 449 522 523 
3 523 522 551 
3 523 551 549 
3 524 554 449 
3 449 554 552 
3 449 552 522 
3 447 556 524 
3 524 556 555 
3 524 555 554 
3 439 525 447 
3 447 525 526 
3 447 526 556 
3 440 560 439 
3 439 560 559 
3 439 559 525 
3 441 528 440 
3 440 528 563 
3 440 563 560 
3 527 531 441 
3 441 531 564 
3 441 564 528 
3 567 566 443 
3 443 566 529 
3 443 529 527 
3 527 529 530 
3 527 530 531 
3 532 87 88 
3 532 507 87 
3 87 507 511 
3 87 511 533 
3 511 509 533 
3 533 509 534 
3 533 534 535 
3 534 512 535 
3 535 512 514 
3 535 514 536 
3 514 516 536 
3 536 516 538 
3 536 538 537 
3 538 515 537 
3 537 515 539 
3 537 539 540 
3 539 520 540 
3 540 520 541 
3 540 541 542 
3 541 519 542 
3 542 519 543 
3 542 543 544 
3 543 521 544 
3 544 521 545 
3 544 545 547 
3 545 546 547 
3 547 546 548 
3 547 548 550 
3 548 549 550 
3 550 549 551 
3 550 551 106 
3 551 522 106 
3 106 522 552 
3 106 552 553 
3 552 554 553 
3 553 554 555 
3 553 555 557 
3 555 556 557 
3 557 556 526 
3 557 526 558 
3 526 525 558 
3 558 525 559 
3 558 559 561 
3 559 560 561 
3 561 560 563 
3 561 563 562 
3 563 528 562 
3 562 528 564 
3 562 564 113 
3 564 531 113 
3 113 531 530 
3 113 530 565 
3 530 529 565 
3 565 529 566 
3 565 566 114 
3 566 567 114 
3 114 567 481 
3 114 481 568 
3 481 479 568 
3 568 479 569 
3 568 569 107 
3 569 482 107 
3 107 482 570 
3 107 570 571 
3 570 483 571 
3 571 483 486 
3 571 486 108 
3 486 485 108 
3 108 485 488 
3 108 488 572 
3 488 573 572 
3 572 573 574 
3 572 574 576 
3 574 489 576 
3 576 489 575 
3 576 575 577 
3 575 578 577 
3 577 578 493 
3 577 493 109 
3 493 492 109 
3 109 492 494 
3 109 494 580 
3 494 579 580 
3 580 579 496 
3 580 496 96 
3 496 581 96 
3 96 581 582 
3 96 582 95 
3 582 583 95 
3 95 583 498 
3 95 498 585 
3 498 501 585 
3 585 501 584 
3 585 584 586 
3 584 499 586 
3 586 499 587 
3 586 587 93 
3 587 588 93 
3 93 588 502 
3 93 502 590 
3 502 589 590 
3 590 589 591 
3 590 591 92 
3 591 504 92 
3 92 504 505 
3 92 505 86 
3 505 592 86 
3 86 592 506 
3 86 506 88 
3 88 506 593 
3 88 593 532 
3 338 614 594 
3 594 614 595 
3 594 595 324 
3 324 595 152 
3 324 152 326 
3 326 152 129 
3 326 129 596 
3 596 129 130 
3 596 130 597 
3 597 130 599 
3 597 599 598 
3 598 599 600 
3 598 600 328 
3 328 600 145 
3 328 145 329 
3 329 145 143 
3 329 143 601 
3 601 143 142 
3 601 142 330 
3 330 142 140 
3 330 140 603 
3 603 140 602 
3 603 602 331 
3 331 602 604 
3 331 604 333 
3 333 604 605 
3 333 605 606 
3 606 605 607 
3 606 607 608 
3 608 607 128 
3 608 128 335 
3 335 128 133 
3 335 133 609 
3 609 133 610 
3 609 610 611 
3 611 610 612 
3 611 612 613 
3 613 612 138 
3 139 615 138 
3 138 615 613 
3 339 154 338 
3 338 154 614 
3 615 139 616 
3 616 139 118 
3 616 118 342 
3 342 118 117 
3 342 117 617 
3 617 117 116 
3 617 116 618 
3 618 116 619 
3 618 619 620 
3 620 619 621 
3 620 621 343 
3 343 621 622 
3 343 622 345 
3 345 622 123 
3 345 123 623 
3 623 123 625 
3 623 625 624 
3 624 625 626 
3 624 626 627 
3 627 626 150 
3 627 150 628 
3 628 150 630 
3 628 630 629 
3 629 630 631 
3 629 631 632 
3 632 631 633 
3 632 633 349 
3 349 633 634 
3 349 634 351 
3 351 634 635 
3 351 635 636 
3 636 635 157 
3 636 157 637 
3 637 157 156 
3 637 156 638 
3 638 156 155 
3 638 155 339 
3 339 155 154 
3 676 141 89 
3 89 141 639 
3 89 639 90 
3 90 639 640 
3 90 640 91 
3 91 640 144 
3 91 144 641 
3 641 144 146 
3 641 146 642 
3 642 146 127 
3 642 127 94 
3 94 127 126 
3 94 126 643 
3 643 126 153 
3 643 153 644 
3 644 153 645 
3 644 645 111 
3 111 645 151 
3 111 151 647 
3 647 151 646 
3 647 646 648 
3 648 646 649 
3 648 649 650 
3 650 649 651 
3 650 651 104 
3 104 651 652 
3 104 652 105 
3 105 652 125 
3 105 125 653 
3 653 125 654 
3 653 654 655 
3 655 654 656 
3 655 656 103 
3 103 656 115 
3 103 115 657 
3 657 115 119 
3 657 119 658 
3 658 119 659 
3 658 659 660 
3 660 659 662 
3 660 662 661 
3 661 662 663 
3 661 663 664 
3 664 663 665 
3 664 665 85 
3 85 665 124 
3 85 124 100 
3 100 124 147 
3 100 147 101 
3 101 147 137 
3 101 137 102 
3 102 137 667 
3 102 667 666 
3 666 667 131 
3 666 131 668 
3 668 131 135 
3 668 135 669 
3 669 135 134 
3 669 134 97 
3 97 134 132 
3 97 132 98 
3 98 132 671 
3 98 671 670 
3 670 671 673 
3 670 673 672 
3 672 673 122 
3 672 122 99 
3 99 122 121 
3 99 121 674 
3 674 121 120 
3 674 120 675 
3 675 120 677 
3 675 677 676 
3 676 677 141 
